<?xml version="1.0" encoding="UTF-8"?>
<svg version="1.1" xmlns="http://www.w3.org/2000/svg" width="500" height="500">
<path d="M0 0 C38.28 0 76.56 0 116 0 C116 9.24 116 18.48 116 28 C125.24 28 134.48 28 144 28 C144 37.24 144 46.48 144 56 C152.58 56 161.16 56 170 56 C170 46.76 170 37.52 170 28 C179.24 28 188.48 28 198 28 C198 18.76 198 9.52 198 0 C235.29 0 272.58 0 311 0 C311 9.24 311 18.48 311 28 C320.24 28 329.48 28 339 28 C339 37.24 339 46.48 339 56 C347.84072863 55.96040599 347.84072863 55.96040599 356.68139648 55.90991211 C358.32217163 55.90616577 358.32217163 55.90616577 359.99609375 55.90234375 C361.12200928 55.89710693 362.2479248 55.89187012 363.40795898 55.88647461 C366 56 366 56 367 57 C367.0977394 58.43981214 367.12631713 59.88438903 367.12698364 61.32751465 C367.12980347 62.26141525 367.13262329 63.19531586 367.13552856 64.15751648 C367.13249222 65.70666496 367.13249222 65.70666496 367.12939453 67.28710938 C367.13202301 68.90888847 367.13202301 68.90888847 367.13470459 70.56343079 C367.13912558 74.15688659 367.13618424 77.75029365 367.1328125 81.34375 C367.13348547 83.82857269 367.13445543 86.31339531 367.13571167 88.79821777 C367.13737858 94.68313375 367.13386577 100.56803187 367.1285609 106.45294523 C367.12480608 111.15369598 367.12613367 115.85442581 367.13037109 120.55517578 C367.13615037 127.0207429 367.13708453 133.48628971 367.13381577 139.95185852 C367.13314625 142.42393498 367.13397577 144.8960123 367.13629532 147.36808777 C367.13882039 150.81637898 367.1349833 154.26460435 367.12939453 157.71289062 C367.13141876 158.74565628 367.13344299 159.77842194 367.13552856 160.84248352 C367.13129883 162.24333443 367.13129883 162.24333443 367.12698364 163.67248535 C367.12660662 164.48881691 367.12622959 165.30514847 367.12584114 166.14621735 C367 168 367 168 366 169 C364.00035018 169.08758003 361.9976389 169.10696576 359.99609375 169.09765625 C358.90224365 169.09515869 357.80839355 169.09266113 356.68139648 169.09008789 C354.58066772 169.07643188 354.58066772 169.07643188 352.4375 169.0625 C348.003125 169.041875 343.56875 169.02125 339 169 C339 177.91 339 186.82 339 196 C329.76 196 320.52 196 311 196 C311.03959518 205.1698291 311.03959518 205.1698291 311.09008789 214.33959961 C311.09383423 216.04128296 311.09383423 216.04128296 311.09765625 217.77734375 C311.10551147 219.52905884 311.10551147 219.52905884 311.11352539 221.31616211 C311 224 311 224 310 225 C307.92737924 225.08767112 305.85179706 225.10695873 303.77734375 225.09765625 C302.64288818 225.09515869 301.50843262 225.09266113 300.33959961 225.09008789 C298.88690674 225.08098389 297.43421387 225.07187988 295.9375 225.0625 C289.0384375 225.0315625 289.0384375 225.0315625 282 225 C282 234.24 282 243.48 282 253 C273.09 253 264.18 253 255 253 C255 261.91 255 270.82 255 280 C252.23382437 281.38308781 249.98982 281.11210196 246.8984375 281.09765625 C245.80708496 281.09515869 244.71573242 281.09266113 243.59130859 281.09008789 C242.19992676 281.08098389 240.80854492 281.07187988 239.375 281.0625 C234.96125 281.041875 230.5475 281.02125 226 281 C226 290.24 226 299.48 226 309 C216.76 309 207.52 309 198 309 C198 318.24 198 327.48 198 337 C188.76 337 179.52 337 170 337 C170 346.24 170 355.48 170 365 C160.43 365 150.86 365 141 365 C141 355.76 141 346.52 141 337 C131.76 337 122.52 337 113 337 C113 327.76 113 318.52 113 309 C103.8301709 309.03959518 103.8301709 309.03959518 94.66040039 309.09008789 C93.52594482 309.09258545 92.39148926 309.09508301 91.22265625 309.09765625 C89.47094116 309.10551147 89.47094116 309.10551147 87.68383789 309.11352539 C85 309 85 309 84 308 C83.91241997 306.00035018 83.89303424 303.9976389 83.90234375 301.99609375 C83.90484131 300.90224365 83.90733887 299.80839355 83.90991211 298.68139648 C83.91901611 297.28091064 83.92812012 295.8804248 83.9375 294.4375 C83.958125 290.003125 83.97875 285.56875 84 281 C75.09 281 66.18 281 57 281 C57 271.76 57 262.52 57 253 C47.8301709 253.03959518 47.8301709 253.03959518 38.66040039 253.09008789 C37.52594482 253.09258545 36.39148926 253.09508301 35.22265625 253.09765625 C34.05484619 253.10289307 32.88703613 253.10812988 31.68383789 253.11352539 C29 253 29 253 28 252 C27.91241997 250.00035018 27.89303424 247.9976389 27.90234375 245.99609375 C27.90717773 244.17368164 27.90717773 244.17368164 27.91210938 242.31445312 C27.92467773 240.39536133 27.92467773 240.39536133 27.9375 238.4375 C27.94201172 237.15423828 27.94652344 235.87097656 27.95117188 234.54882812 C27.96300455 231.36583978 27.97948932 228.18294238 28 225 C27.18732666 225.00523682 26.37465332 225.01047363 25.53735352 225.01586914 C21.87907678 225.03656994 18.22081233 225.04963803 14.5625 225.0625 C13.28310547 225.07087891 12.00371094 225.07925781 10.68554688 225.08789062 C9.47060547 225.09111328 8.25566406 225.09433594 7.00390625 225.09765625 C5.31503296 225.10551147 5.31503296 225.10551147 3.59204102 225.11352539 C1 225 1 225 0 224 C-0.08767112 221.92737924 -0.10695873 219.85179706 -0.09765625 217.77734375 C-0.09515869 216.64288818 -0.09266113 215.50843262 -0.09008789 214.33959961 C-0.08098389 212.88690674 -0.07187988 211.43421387 -0.0625 209.9375 C-0.0315625 203.0384375 -0.0315625 203.0384375 0 196 C-9.24 196 -18.48 196 -28 196 C-28 187.09 -28 178.18 -28 169 C-37.24 169 -46.48 169 -56 169 C-56 131.71 -56 94.42 -56 56 C-46.76 56 -37.52 56 -28 56 C-28 46.76 -28 37.52 -28 28 C-23.75125 27.814375 -19.5025 27.62875 -15.125 27.4375 C-13.7858252 27.37618896 -12.44665039 27.31487793 -11.06689453 27.25170898 C-9.49077393 27.18705444 -9.49077393 27.18705444 -7.8828125 27.12109375 C-6.26463623 27.05039673 -6.26463623 27.05039673 -4.61376953 26.97827148 C-2 27 -2 27 0 28 C0 18.76 0 9.52 0 0 Z M33 57 C32.67 65.58 32.34 74.16 32 83 C31.67 83.66 31.34 84.32 31 85 C30.31897217 84.99476318 29.63794434 84.98952637 28.9362793 84.98413086 C25.85336223 84.96335542 22.7704599 84.95033802 19.6875 84.9375 C18.61564453 84.92912109 17.54378906 84.92074219 16.43945312 84.91210938 C15.41142578 84.90888672 14.38339844 84.90566406 13.32421875 84.90234375 C12.37635498 84.89710693 11.42849121 84.89187012 10.4519043 84.88647461 C7.86161319 84.89501146 7.86161319 84.89501146 5 86 C5 103.82 5 121.64 5 140 C13.91 140 22.82 140 32 140 C31.96040599 131.15927137 31.96040599 131.15927137 31.90991211 122.31860352 C31.90741455 121.22475342 31.90491699 120.13090332 31.90234375 119.00390625 C31.89448853 117.31503296 31.89448853 117.31503296 31.88647461 115.59204102 C32 113 32 113 33 112 C34.92667507 111.91251793 36.85651861 111.89302666 38.78515625 111.90234375 C39.83840088 111.90484131 40.89164551 111.90733887 41.97680664 111.90991211 C43.32508545 111.91901611 44.67336426 111.92812012 46.0625 111.9375 C50.331875 111.958125 54.60125 111.97875 59 112 C59 102.76 59 93.52 59 84 C68.57 84 78.14 84 88 84 C88.020625 80.844375 88.04125 77.68875 88.0625 74.4375 C88.071604 73.4570874 88.08070801 72.4766748 88.09008789 71.46655273 C88.09258545 70.67192627 88.09508301 69.8772998 88.09765625 69.05859375 C88.10551147 67.85674438 88.10551147 67.85674438 88.11352539 66.63061523 C87.97419425 63.40202817 87.45701614 60.19911298 87 57 C69.18 57 51.36 57 33 57 Z " fill="#FD0000" transform="translate(93,68)"/>
<path d="M0 0 C38.28 0 76.56 0 116 0 C116 9.24 116 18.48 116 28 C125.24 28 134.48 28 144 28 C144 37.24 144 46.48 144 56 C152.58 56 161.16 56 170 56 C170 46.76 170 37.52 170 28 C179.24 28 188.48 28 198 28 C198 18.76 198 9.52 198 0 C235.29 0 272.58 0 311 0 C311 9.24 311 18.48 311 28 C320.24 28 329.48 28 339 28 C339 37.24 339 46.48 339 56 C347.84072863 55.96040599 347.84072863 55.96040599 356.68139648 55.90991211 C358.32217163 55.90616577 358.32217163 55.90616577 359.99609375 55.90234375 C361.12200928 55.89710693 362.2479248 55.89187012 363.40795898 55.88647461 C366 56 366 56 367 57 C367.0977394 58.43981214 367.12631713 59.88438903 367.12698364 61.32751465 C367.12980347 62.26141525 367.13262329 63.19531586 367.13552856 64.15751648 C367.13249222 65.70666496 367.13249222 65.70666496 367.12939453 67.28710938 C367.13202301 68.90888847 367.13202301 68.90888847 367.13470459 70.56343079 C367.13912558 74.15688659 367.13618424 77.75029365 367.1328125 81.34375 C367.13348547 83.82857269 367.13445543 86.31339531 367.13571167 88.79821777 C367.13737858 94.68313375 367.13386577 100.56803187 367.1285609 106.45294523 C367.12480608 111.15369598 367.12613367 115.85442581 367.13037109 120.55517578 C367.13615037 127.0207429 367.13708453 133.48628971 367.13381577 139.95185852 C367.13314625 142.42393498 367.13397577 144.8960123 367.13629532 147.36808777 C367.13882039 150.81637898 367.1349833 154.26460435 367.12939453 157.71289062 C367.13141876 158.74565628 367.13344299 159.77842194 367.13552856 160.84248352 C367.13129883 162.24333443 367.13129883 162.24333443 367.12698364 163.67248535 C367.12660662 164.48881691 367.12622959 165.30514847 367.12584114 166.14621735 C367 168 367 168 366 169 C364.00035018 169.08758003 361.9976389 169.10696576 359.99609375 169.09765625 C358.90224365 169.09515869 357.80839355 169.09266113 356.68139648 169.09008789 C354.58066772 169.07643188 354.58066772 169.07643188 352.4375 169.0625 C348.003125 169.041875 343.56875 169.02125 339 169 C339 177.91 339 186.82 339 196 C329.76 196 320.52 196 311 196 C311.03959518 205.1698291 311.03959518 205.1698291 311.09008789 214.33959961 C311.09383423 216.04128296 311.09383423 216.04128296 311.09765625 217.77734375 C311.10551147 219.52905884 311.10551147 219.52905884 311.11352539 221.31616211 C311 224 311 224 310 225 C307.92737924 225.08767112 305.85179706 225.10695873 303.77734375 225.09765625 C302.64288818 225.09515869 301.50843262 225.09266113 300.33959961 225.09008789 C298.88690674 225.08098389 297.43421387 225.07187988 295.9375 225.0625 C289.0384375 225.0315625 289.0384375 225.0315625 282 225 C282 234.24 282 243.48 282 253 C273.09 253 264.18 253 255 253 C255 261.91 255 270.82 255 280 C252.23382437 281.38308781 249.98982 281.11210196 246.8984375 281.09765625 C245.80708496 281.09515869 244.71573242 281.09266113 243.59130859 281.09008789 C242.19992676 281.08098389 240.80854492 281.07187988 239.375 281.0625 C234.96125 281.041875 230.5475 281.02125 226 281 C226 290.24 226 299.48 226 309 C216.76 309 207.52 309 198 309 C198 318.24 198 327.48 198 337 C188.76 337 179.52 337 170 337 C170 346.24 170 355.48 170 365 C160.43 365 150.86 365 141 365 C141 355.76 141 346.52 141 337 C131.76 337 122.52 337 113 337 C113 327.76 113 318.52 113 309 C103.8301709 309.03959518 103.8301709 309.03959518 94.66040039 309.09008789 C93.52594482 309.09258545 92.39148926 309.09508301 91.22265625 309.09765625 C89.47094116 309.10551147 89.47094116 309.10551147 87.68383789 309.11352539 C85 309 85 309 84 308 C83.91241997 306.00035018 83.89303424 303.9976389 83.90234375 301.99609375 C83.90484131 300.90224365 83.90733887 299.80839355 83.90991211 298.68139648 C83.91901611 297.28091064 83.92812012 295.8804248 83.9375 294.4375 C83.958125 290.003125 83.97875 285.56875 84 281 C75.09 281 66.18 281 57 281 C57 271.76 57 262.52 57 253 C47.8301709 253.03959518 47.8301709 253.03959518 38.66040039 253.09008789 C37.52594482 253.09258545 36.39148926 253.09508301 35.22265625 253.09765625 C34.05484619 253.10289307 32.88703613 253.10812988 31.68383789 253.11352539 C29 253 29 253 28 252 C27.91241997 250.00035018 27.89303424 247.9976389 27.90234375 245.99609375 C27.90717773 244.17368164 27.90717773 244.17368164 27.91210938 242.31445312 C27.92467773 240.39536133 27.92467773 240.39536133 27.9375 238.4375 C27.94201172 237.15423828 27.94652344 235.87097656 27.95117188 234.54882812 C27.96300455 231.36583978 27.97948932 228.18294238 28 225 C27.18732666 225.00523682 26.37465332 225.01047363 25.53735352 225.01586914 C21.87907678 225.03656994 18.22081233 225.04963803 14.5625 225.0625 C13.28310547 225.07087891 12.00371094 225.07925781 10.68554688 225.08789062 C9.47060547 225.09111328 8.25566406 225.09433594 7.00390625 225.09765625 C5.31503296 225.10551147 5.31503296 225.10551147 3.59204102 225.11352539 C1 225 1 225 0 224 C-0.08767112 221.92737924 -0.10695873 219.85179706 -0.09765625 217.77734375 C-0.09515869 216.64288818 -0.09266113 215.50843262 -0.09008789 214.33959961 C-0.08098389 212.88690674 -0.07187988 211.43421387 -0.0625 209.9375 C-0.0315625 203.0384375 -0.0315625 203.0384375 0 196 C-9.24 196 -18.48 196 -28 196 C-28 187.09 -28 178.18 -28 169 C-37.24 169 -46.48 169 -56 169 C-56 131.71 -56 94.42 -56 56 C-46.76 56 -37.52 56 -28 56 C-28 46.76 -28 37.52 -28 28 C-23.75125 27.814375 -19.5025 27.62875 -15.125 27.4375 C-13.7858252 27.37618896 -12.44665039 27.31487793 -11.06689453 27.25170898 C-9.49077393 27.18705444 -9.49077393 27.18705444 -7.8828125 27.12109375 C-6.26463623 27.05039673 -6.26463623 27.05039673 -4.61376953 26.97827148 C-2 27 -2 27 0 28 C0 18.76 0 9.52 0 0 Z M4 31 C2.32784971 34.34430059 2.65656397 38.12744803 2.5 41.8125 C2.03843039 52.52262456 2.03843039 52.52262456 1 56 C-7.07189913 60.03594956 -16.98255349 57.63930214 -26 58 C-26 93.64 -26 129.28 -26 166 C-17.42 166.33 -8.84 166.66 0 167 C0.495 181.355 0.495 181.355 1 196 C10.24 196 19.48 196 29 196 C29 205.24 29 214.48 29 224 C38.57 224 48.14 224 58 224 C58 232.91 58 241.82 58 251 C67.24 251.33 76.48 251.66 86 252 C86.4375 264.4375 86.4375 264.4375 86.56811523 268.36499023 C86.60622314 269.37762939 86.64433105 270.39026855 86.68359375 271.43359375 C86.72025146 272.47572021 86.75690918 273.51784668 86.79467773 274.59155273 C86.73515341 276.9499826 86.73515341 276.9499826 88 278 C89.84037134 278.14572736 91.68590714 278.22727918 93.53125 278.28125 C94.65144531 278.31863281 95.77164063 278.35601562 96.92578125 278.39453125 C98.10527344 278.42933594 99.28476563 278.46414063 100.5 278.5 C102.82304966 278.56854901 105.14598222 278.64123531 107.46875 278.71875 C108.50451172 278.74904297 109.54027344 278.77933594 110.60742188 278.81054688 C113 279 113 279 114 280 C114.145912 281.91340269 114.2273293 283.83179961 114.28125 285.75 C114.33732422 287.49796875 114.33732422 287.49796875 114.39453125 289.28125 C114.46484375 291.76041667 114.53515625 294.23958333 114.60546875 296.71875 C114.64285156 297.8840625 114.68023437 299.049375 114.71875 300.25 C114.74904297 301.32765625 114.77933594 302.4053125 114.81054688 303.515625 C114.72428563 305.94138342 114.72428563 305.94138342 116 307 C117.99964982 307.08758003 120.0023611 307.10696576 122.00390625 307.09765625 C123.82631836 307.09282227 123.82631836 307.09282227 125.68554688 307.08789062 C126.96494141 307.07951172 128.24433594 307.07113281 129.5625 307.0625 C131.48739258 307.05573242 131.48739258 307.05573242 133.45117188 307.04882812 C136.63416022 307.03699545 139.81705762 307.02051068 143 307 C142.98952637 307.77714355 142.97905273 308.55428711 142.96826172 309.35498047 C142.92679718 312.861621 142.90070422 316.36821006 142.875 319.875 C142.84986328 321.70998047 142.84986328 321.70998047 142.82421875 323.58203125 C142.81455078 325.33193359 142.81455078 325.33193359 142.8046875 327.1171875 C142.78897705 328.73536377 142.78897705 328.73536377 142.77294922 330.38623047 C142.73160023 333.16044022 142.73160023 333.16044022 145 335 C147.42597951 335.27787668 147.42597951 335.27787668 150.2265625 335.1953125 C151.15549316 335.19031738 152.08442383 335.18532227 153.04150391 335.18017578 C154.22405762 335.16196777 155.40661133 335.14375977 156.625 335.125 C162.255625 335.063125 162.255625 335.063125 168 335 C168 326.09 168 317.18 168 308 C177.57 308 187.14 308 197 308 C197.33 298.76 197.66 289.52 198 280 C206.58 279.67 215.16 279.34 224 279 C224 269.76 224 260.52 224 251 C233 250.5625 233 250.5625 235.78515625 250.43188477 C244.47183477 250.62303411 244.47183477 250.62303411 252 248 C252.07514111 246.25409621 252.08316228 244.50521036 252.0625 242.7578125 C252.05476563 241.69175781 252.04703125 240.62570312 252.0390625 239.52734375 C252.01311052 237.26692605 251.98706947 235.00650937 251.9609375 232.74609375 C251.95320313 231.67746094 251.94546875 230.60882813 251.9375 229.5078125 C251.92589844 228.52441895 251.91429687 227.54102539 251.90234375 226.52783203 C252 224 252 224 253 221 C253.78238037 221.00523682 254.56476074 221.01047363 255.37084961 221.01586914 C258.89305833 221.03657106 262.4152543 221.04963838 265.9375 221.0625 C267.16919922 221.07087891 268.40089844 221.07925781 269.66992188 221.08789062 C271.4246582 221.09272461 271.4246582 221.09272461 273.21484375 221.09765625 C274.29886475 221.10289307 275.38288574 221.10812988 276.49975586 221.11352539 C278.94049948 221.28426897 278.94049948 221.28426897 280 220 C280.08726223 218.21928754 280.10699041 216.4351686 280.09765625 214.65234375 C280.09390991 213.19429321 280.09390991 213.19429321 280.09008789 211.70678711 C280.08098389 210.46292236 280.07187988 209.21905762 280.0625 207.9375 C280.0315625 202.0284375 280.0315625 202.0284375 280 196 C289.24 195.34 298.48 194.68 308 194 C308 184.76 308 175.52 308 166 C317.24 165.67 326.48 165.34 336 165 C336 129.69 336 94.38 336 58 C326.43 57.67 316.86 57.34 307 57 C307.33 56.34 307.66 55.68 308 55 C308.09629223 53.27164535 308.13075017 51.53962747 308.1328125 49.80859375 C308.13474609 48.26848633 308.13474609 48.26848633 308.13671875 46.69726562 C308.13285156 45.62154297 308.12898438 44.54582031 308.125 43.4375 C308.12886719 42.35791016 308.13273437 41.27832031 308.13671875 40.16601562 C308.13542969 39.14056641 308.13414062 38.11511719 308.1328125 37.05859375 C308.13168457 36.11298584 308.13055664 35.16737793 308.12939453 34.19311523 C308.2450282 32.02361749 308.2450282 32.02361749 307 31 C305.62123975 30.9046081 304.23763084 30.87811378 302.85557556 30.87974548 C301.96230057 30.87837082 301.06902557 30.87699615 300.14868164 30.87557983 C299.16109863 30.87917511 298.17351562 30.88277039 297.15600586 30.88647461 C296.12198135 30.88632858 295.08795685 30.88618256 294.02259827 30.8860321 C290.58665914 30.88673173 287.15077347 30.89452642 283.71484375 30.90234375 C281.33972707 30.90420775 278.96461 30.90563174 276.5894928 30.90663147 C270.32423856 30.91045803 264.05900733 30.9202895 257.79376221 30.93133545 C251.4061311 30.9415466 245.01849629 30.94612845 238.63085938 30.95117188 C226.08722974 30.96191164 213.54361609 30.97879873 201 31 C200.96241577 32.17357056 200.96241577 32.17357056 200.92407227 33.37084961 C200.80850212 36.89324949 200.68560051 40.4153556 200.5625 43.9375 C200.52318359 45.16919922 200.48386719 46.40089844 200.44335938 47.66992188 C200.40146484 48.83974609 200.35957031 50.00957031 200.31640625 51.21484375 C200.26141968 52.84087524 200.26141968 52.84087524 200.20532227 54.49975586 C200 57 200 57 199 58 C197.14825294 58.15786308 195.2909089 58.25107356 193.43359375 58.31640625 C192.30888672 58.35830078 191.18417969 58.40019531 190.02539062 58.44335938 C188.84138672 58.48267578 187.65738281 58.52199219 186.4375 58.5625 C185.24962891 58.60568359 184.06175781 58.64886719 182.83789062 58.69335938 C179.89205216 58.79983546 176.9461257 58.90184841 174 59 C173.25484101 62.38636309 172.83229437 65.61943103 172.68359375 69.08203125 C172.64548584 69.9222583 172.60737793 70.76248535 172.56811523 71.62817383 C172.52501221 72.67900146 172.48190918 73.7298291 172.4375 74.8125 C172.293125 78.174375 172.14875 81.53625 172 85 C162.43 85 152.86 85 143 85 C142.5625 72.0625 142.5625 72.0625 142.43188477 67.97680664 C142.39377686 66.92356201 142.35566895 65.87031738 142.31640625 64.78515625 C142.27974854 63.70113525 142.24309082 62.61711426 142.20532227 61.50024414 C142.27635735 59.060737 142.27635735 59.060737 141 58 C138.92737924 57.91232888 136.85179706 57.89304127 134.77734375 57.90234375 C132.88725586 57.90717773 132.88725586 57.90717773 130.95898438 57.91210938 C129.61848891 57.92046597 128.27799412 57.92893093 126.9375 57.9375 C125.59310058 57.9425134 124.2486994 57.94707658 122.90429688 57.95117188 C119.60284567 57.96300503 116.3014174 57.98094114 113 58 C112.67 49.09 112.34 40.18 112 31 C76.36 31 40.72 31 4 31 Z " fill="#943F41" transform="translate(93,68)"/>
<path d="M0 0 C37.62 0 75.24 0 114 0 C114 9.57 114 19.14 114 29 C76.38 28.67 38.76 28.34 0 28 C0 18.76 0 9.52 0 0 Z " fill="#040101" transform="translate(94,68)"/>
<path d="M0 0 C9.24 0 18.48 0 28 0 C28 36.63 28 73.26 28 111 C18.76 111 9.52 111 0 111 C0 74.37 0 37.74 0 0 Z " fill="#040303" transform="translate(432,125)"/>
<path d="M0 0 C36.63 0 73.26 0 111 0 C111 9.24 111 18.48 111 28 C74.37 28 37.74 28 0 28 C0 18.76 0 9.52 0 0 Z " fill="#040101" transform="translate(292,68)"/>
<path d="M0 0 C8.25 0 16.5 0 25 0 C25 36.3 25 72.6 25 110 C12.625 110.495 12.625 110.495 0 111 C0 74.37 0 37.74 0 0 Z " fill="#000001" transform="translate(38,125)"/>
<path d="M0 0 C35.97 0 71.94 0 109 0 C109.76528283 3.82641414 110.1189632 6.70558653 110.09765625 10.51953125 C110.09515869 11.44096924 110.09266113 12.36240723 110.09008789 13.31176758 C110.07643188 15.04463013 110.07643188 15.04463013 110.0625 16.8125 C110.041875 20.504375 110.02125 24.19625 110 28 C119.24 28 128.48 28 138 28 C138.02254805 42.32494764 138.04091336 56.6498836 138.05181217 70.97484493 C138.05704174 77.6257353 138.06414072 84.27660786 138.07543945 90.92749023 C138.08626571 97.34002877 138.09227628 103.75255504 138.09487724 110.16510201 C138.09673197 112.61764278 138.10035347 115.07018285 138.10573006 117.52271843 C138.11293702 120.94476677 138.11399109 124.36676371 138.11352539 127.78881836 C138.11712067 128.81380432 138.12071594 129.83879028 138.12442017 130.89483643 C138.1230455 131.82176804 138.12167084 132.74869965 138.12025452 133.70372009 C138.12163721 134.91910414 138.12163721 134.91910414 138.12304783 136.1590414 C138 138 138 138 137 139 C135.00035018 139.08758003 132.9976389 139.10696576 130.99609375 139.09765625 C129.78115234 139.09443359 128.56621094 139.09121094 127.31445312 139.08789062 C126.03505859 139.07951172 124.75566406 139.07113281 123.4375 139.0625 C122.15423828 139.05798828 120.87097656 139.05347656 119.54882812 139.04882812 C116.36583978 139.03699545 113.18294238 139.02051068 110 139 C110.03029297 139.70157227 110.06058594 140.40314453 110.09179688 141.12597656 C110.67535029 154.9831257 111.10334633 168.81832486 111.125 182.6875 C111.13176758 184.5123291 111.13176758 184.5123291 111.13867188 186.37402344 C111.13673828 187.49196289 111.13480469 188.60990234 111.1328125 189.76171875 C111.13168457 190.75131592 111.13055664 191.74091309 111.12939453 192.76049805 C111 195 111 195 110 196 C107.74792223 196.10099003 105.49262136 196.13082467 103.23828125 196.1328125 C102.54364273 196.13413177 101.84900421 196.13545105 101.13331604 196.1368103 C98.85966615 196.13873572 96.58613748 196.13237518 94.3125 196.125 C93.16192108 196.12367065 93.16192108 196.12367065 91.98809814 196.12231445 C79.29747265 196.10502341 66.67330722 195.71398914 54 195 C54 204.24 54 213.48 54 223 C44.76 223 35.52 223 26 223 C26 232.24 26 241.48 26 251 C16.76 251 7.52 251 -2 251 C-2 250.67 -2 250.34 -2 250 C6.58 250 15.16 250 24 250 C24 240.76 24 231.52 24 222 C26.594718 220.702641 28.76785439 220.68425346 31.6640625 220.46484375 C32.78554688 220.37783203 33.90703125 220.29082031 35.0625 220.20117188 C36.238125 220.11416016 37.41375 220.02714844 38.625 219.9375 C39.80835938 219.84662109 40.99171875 219.75574219 42.2109375 219.66210938 C45.14036185 219.43767767 48.07002763 219.21714035 51 219 C50.98952637 218.2886792 50.97905273 217.5773584 50.96826172 216.84448242 C50.92671999 213.62552414 50.90067961 210.40662224 50.875 207.1875 C50.85824219 206.06794922 50.84148437 204.94839844 50.82421875 203.79492188 C50.81777344 202.72177734 50.81132812 201.64863281 50.8046875 200.54296875 C50.79421387 199.55321045 50.78374023 198.56345215 50.77294922 197.54370117 C51 195 51 195 53 192 C55.61376953 191.56762695 55.61376953 191.56762695 58.8828125 191.48828125 C60.04941406 191.45283203 61.21601563 191.41738281 62.41796875 191.38085938 C63.64128906 191.35830078 64.86460937 191.33574219 66.125 191.3125 C67.35605469 191.27833984 68.58710938 191.24417969 69.85546875 191.20898438 C72.90332013 191.12629073 75.95164684 191.06147583 79 191 C79.33 183.08 79.66 175.16 80 167 C90.125 164.75 90.125 164.75 94.03515625 164.8046875 C94.78418213 164.80968262 95.53320801 164.81467773 96.30493164 164.81982422 C97.2149292 164.83803223 98.12492676 164.85624023 99.0625 164.875 C102.011875 164.91625 104.96125 164.9575 108 165 C108 155.76 108 146.52 108 137 C116.35330939 132.8233453 126.66071618 136 136 136 C136 100.69 136 65.38 136 29 C127.09 29 118.18 29 109 29 C108.34 28.67 107.68 28.34 107 28 C107 19.75 107 11.5 107 3 C54.53 2.505 54.53 2.505 1 2 C1 10.58 1 19.16 1 28 C-1 30 -1 30 -3.52197266 30.22705078 C-4.5588623 30.21657715 -5.59575195 30.20610352 -6.6640625 30.1953125 C-7.78554688 30.18886719 -8.90703125 30.18242188 -10.0625 30.17578125 C-11.238125 30.15902344 -12.41375 30.14226562 -13.625 30.125 C-14.80835938 30.11597656 -15.99171875 30.10695313 -17.2109375 30.09765625 C-20.14082523 30.07402812 -23.0703134 30.04108514 -26 30 C-26.03758423 31.17357056 -26.03758423 31.17357056 -26.07592773 32.37084961 C-26.19149788 35.89324949 -26.31439949 39.4153556 -26.4375 42.9375 C-26.47681641 44.16919922 -26.51613281 45.40089844 -26.55664062 46.66992188 C-26.59853516 47.83974609 -26.64042969 49.00957031 -26.68359375 50.21484375 C-26.73858032 51.84087524 -26.73858032 51.84087524 -26.79467773 53.49975586 C-27 56 -27 56 -28 57 C-30.13353174 57.10003289 -32.27037542 57.13081048 -34.40625 57.1328125 C-35.70691406 57.13410156 -37.00757813 57.13539063 -38.34765625 57.13671875 C-39.02844238 57.13462402 -39.70922852 57.1325293 -40.41064453 57.13037109 C-42.49128515 57.1250224 -44.57170989 57.1303168 -46.65234375 57.13671875 C-48.60333984 57.13478516 -48.60333984 57.13478516 -50.59375 57.1328125 C-51.79708984 57.13168457 -53.00042969 57.13055664 -54.24023438 57.12939453 C-57 57 -57 57 -58 56 C-58.15806531 54.07521187 -58.251135 52.1450079 -58.31640625 50.21484375 C-58.35451416 49.16159912 -58.39262207 48.10835449 -58.43188477 47.02319336 C-58.47498779 45.67491455 -58.51809082 44.32663574 -58.5625 42.9375 C-58.7790625 36.5334375 -58.7790625 36.5334375 -59 30 C-72.86 29.505 -72.86 29.505 -87 29 C-91.02768199 20.94463602 -88 11.00617072 -88 2 C-123.64 2 -159.28 2 -196 2 C-196.33 8.6 -196.66 15.2 -197 22 C-197.33 22 -197.66 22 -198 22 C-198 15.07 -198 8.14 -198 1 C-183.54466854 0.97745203 -169.08934867 0.95908669 -154.63400364 0.94818783 C-147.92258132 0.94302511 -141.21117068 0.93598287 -134.49975586 0.92456055 C-128.02886264 0.91373435 -121.55798158 0.90772374 -115.08708 0.90512276 C-112.61221055 0.90326802 -110.1373418 0.8996465 -107.66247749 0.89426994 C-104.20929627 0.88706307 -100.75616599 0.88600891 -97.30297852 0.88647461 C-96.26864182 0.88287933 -95.23430511 0.87928406 -94.16862488 0.87557983 C-93.23327911 0.8769545 -92.29793335 0.87832916 -91.33424377 0.87974548 C-90.5166134 0.87882369 -89.69898302 0.8779019 -88.85657597 0.87695217 C-87 1 -87 1 -86 2 C-85.84213692 3.85174706 -85.74892644 5.7090911 -85.68359375 7.56640625 C-85.64548584 8.57904541 -85.60737793 9.59168457 -85.56811523 10.63500977 C-85.50346069 12.57911743 -85.50346069 12.57911743 -85.4375 14.5625 C-85.2209375 20.7190625 -85.2209375 20.7190625 -85 27 C-71.14 27.495 -71.14 27.495 -57 28 C-56.67 36.91 -56.34 45.82 -56 55 C-42.635 55.495 -42.635 55.495 -29 56 C-29 46.76 -29 37.52 -29 28 C-19.76 27.67 -10.52 27.34 -1 27 C-0.67 18.09 -0.34 9.18 0 0 Z " fill="#C11012" transform="translate(293,97)"/>
<path d="M0 0 C0.33 0 0.66 0 1 0 C1 9.24 1 18.48 1 28 C4.41786865 27.99476318 7.8357373 27.98952637 11.35717773 27.98413086 C22.62088161 27.9675977 33.88458642 27.95647905 45.14829922 27.94818783 C51.98078974 27.94302507 58.81326879 27.93598277 65.64575195 27.92456055 C72.23335305 27.91355293 78.82094531 27.90772377 85.40855598 27.90512276 C87.92808279 27.903268 90.44760891 27.89964643 92.96713066 27.89426994 C96.48257765 27.88706324 99.99797461 27.8860089 103.51342773 27.88647461 C104.56646591 27.88287933 105.61950409 27.87928406 106.70445251 27.87557983 C108.13271362 27.87764183 108.13271362 27.87764183 109.58982849 27.87974548 C110.42220756 27.87882369 111.25458662 27.8779019 112.11218929 27.87695217 C114 28 114 28 115 29 C115.08758003 30.99964982 115.10696576 33.0023611 115.09765625 35.00390625 C115.09443359 36.21884766 115.09121094 37.43378906 115.08789062 38.68554688 C115.07951172 39.96494141 115.07113281 41.24433594 115.0625 42.5625 C115.05798828 43.84576172 115.05347656 45.12902344 115.04882812 46.45117188 C115.03699545 49.63416022 115.02051068 52.81705762 115 56 C114.67 56 114.34 56 114 56 C113.67 47.75 113.34 39.5 113 31 C76.37 30.67 39.74 30.34 2 30 C2 38.58 2 47.16 2 56 C-5.78558826 61.19039218 -16.64288743 58 -26 58 C-26 93.64 -26 129.28 -26 166 C-17.42 166 -8.84 166 0 166 C0.33 166.66 0.66 167.32 1 168 C-8.24 168 -17.48 168 -27 168 C-27 177.24 -27 186.48 -27 196 C-27.33 196 -27.66 196 -28 196 C-28 187.09 -28 178.18 -28 169 C-37.24 169 -46.48 169 -56 169 C-56 131.71 -56 94.42 -56 56 C-46.76 56 -37.52 56 -28 56 C-28 46.76 -28 37.52 -28 28 C-23.75125 27.814375 -19.5025 27.62875 -15.125 27.4375 C-13.7858252 27.37618896 -12.44665039 27.31487793 -11.06689453 27.25170898 C-9.49077393 27.18705444 -9.49077393 27.18705444 -7.8828125 27.12109375 C-6.26463623 27.05039673 -6.26463623 27.05039673 -4.61376953 26.97827148 C-2 27 -2 27 0 28 C0 18.76 0 9.52 0 0 Z M-55 57 C-55 93.63 -55 130.26 -55 168 C-42.625 167.505 -42.625 167.505 -30 167 C-30 130.7 -30 94.4 -30 57 C-38.25 57 -46.5 57 -55 57 Z " fill="#A61D1E" transform="translate(93,68)"/>
<path d="M0 0 C9.24 0 18.48 0 28 0 C28 9.24 28 18.48 28 28 C18.76 28 9.52 28 0 28 C0 18.76 0 9.52 0 0 Z " fill="#010000" transform="translate(234,404)"/>
<path d="M0 0 C9.24 0 18.48 0 28 0 C28 9.24 28 18.48 28 28 C18.76 28 9.52 28 0 28 C0 18.76 0 9.52 0 0 Z " fill="#010000" transform="translate(150,320)"/>
<path d="M0 0 C9.24 0 18.48 0 28 0 C28 9.24 28 18.48 28 28 C18.76 28 9.52 28 0 28 C0 18.76 0 9.52 0 0 Z " fill="#010001" transform="translate(66,236)"/>
<path d="M0 0 C9.24 0 18.48 0 28 0 C28 9.24 28 18.48 28 28 C18.76 28 9.52 28 0 28 C0 18.76 0 9.52 0 0 Z " fill="#070102" transform="translate(403,236)"/>
<path d="M0 0 C9.24 0 18.48 0 28 0 C28 9.24 28 18.48 28 28 C18.76 28 9.52 28 0 28 C0 18.76 0 9.52 0 0 Z " fill="#010101" transform="translate(403,97)"/>
<path d="M0 0 C9.24 0 18.48 0 28 0 C28 9.24 28 18.48 28 28 C23.565625 28.020625 19.13125 28.04125 14.5625 28.0625 C13.16201416 28.071604 11.76152832 28.08070801 10.31860352 28.09008789 C9.22475342 28.09258545 8.13090332 28.09508301 7.00390625 28.09765625 C5.87799072 28.10289307 4.7520752 28.10812988 3.59204102 28.11352539 C1 28 1 28 0 27 C-0.08758003 25.00035018 -0.10696576 22.9976389 -0.09765625 20.99609375 C-0.09515869 19.90224365 -0.09266113 18.80839355 -0.09008789 17.68139648 C-0.08098389 16.28091064 -0.07187988 14.8804248 -0.0625 13.4375 C-0.041875 9.003125 -0.02125 4.56875 0 0 Z " fill="#020001" transform="translate(236,125)"/>
<path d="M0 0 C3.50625 -0.020625 7.0125 -0.04125 10.625 -0.0625 C11.71893066 -0.071604 12.81286133 -0.08070801 13.93994141 -0.09008789 C15.25744385 -0.09383423 15.25744385 -0.09383423 16.6015625 -0.09765625 C17.49182129 -0.10289307 18.38208008 -0.10812988 19.29931641 -0.11352539 C22 0 22 0 28 1 C28 9.91 28 18.82 28 28 C18.76 28 9.52 28 0 28 C0 18.76 0 9.52 0 0 Z " fill="#060001" transform="translate(347,292)"/>
<path d="M0 0 C13.86 0.495 13.86 0.495 28 1 C28 9.91 28 18.82 28 28 C18.76 28 9.52 28 0 28 C0 18.76 0 9.52 0 0 Z " fill="#010001" transform="translate(290,348)"/>
<path d="M0 0 C9.24 0 18.48 0 28 0 C28 8.91 28 17.82 28 27 C18.76 27 9.52 27 0 27 C0 18.09 0 9.18 0 0 Z " fill="#050000" transform="translate(264,97)"/>
<path d="M0 0 C0.98658096 0.0169693 1.97316193 0.0339386 2.98963928 0.05142212 C4.66158607 0.07672501 4.66158607 0.07672501 6.36730957 0.10253906 C8.18755394 0.13838608 8.18755394 0.13838608 10.04457092 0.17495728 C11.89980125 0.20681625 11.89980125 0.20681625 13.79251099 0.23931885 C17.08802332 0.2975904 20.38339873 0.36081408 23.67878723 0.42562866 C25.70098431 0.46394885 27.72320799 0.49841482 29.74549866 0.53140259 C33.61613544 0.59489837 37.48659145 0.66505948 41.35707092 0.73745728 C42.56854294 0.75730682 43.78001495 0.77715637 45.02819824 0.79760742 C46.70487328 0.83236679 46.70487328 0.83236679 48.41542053 0.86782837 C49.89648537 0.8956691 49.89648537 0.8956691 51.4074707 0.92407227 C53.76722717 1.08901978 53.76722717 1.08901978 55.76722717 2.08901978 C55.76722717 11.32901978 55.76722717 20.56901978 55.76722717 30.08901978 C53.05321423 31.44602625 50.91876401 31.20140588 47.88441467 31.18667603 C46.71781311 31.18345337 45.55121155 31.18023071 44.34925842 31.1769104 C43.12593811 31.16853149 41.9026178 31.16015259 40.64222717 31.15151978 C39.41117249 31.14700806 38.1801178 31.14249634 36.91175842 31.1378479 C33.86353325 31.12603307 30.81540403 31.10956005 27.76722717 31.08901978 C27.78293762 31.83063354 27.79864807 32.57224731 27.81483459 33.33633423 C27.87713431 36.69131874 27.91620224 40.04618163 27.95472717 43.40151978 C27.97986389 44.56876587 28.00500061 45.73601196 28.03089905 46.93862915 C28.04056702 48.05689087 28.05023499 49.17515259 28.06019592 50.32730103 C28.07590637 51.35895386 28.09161682 52.39060669 28.10780334 53.45352173 C27.76722717 56.08901978 27.76722717 56.08901978 26.60902405 57.93081665 C24.00389246 59.56903832 22.06771784 59.42862116 19.00550842 59.38198853 C17.99786438 59.37449585 16.99022034 59.36700317 15.95204163 59.35928345 C14.03524597 59.31831543 14.03524597 59.31831543 12.07972717 59.27651978 C8.01660217 59.21464478 3.95347717 59.15276978 -0.23277283 59.08901978 C-0.23277283 68.32901978 -0.23277283 77.56901978 -0.23277283 87.08901978 C-3.09112769 88.51819721 -5.54535002 88.21882786 -8.73667908 88.22183228 C-10.03412048 88.22312134 -11.33156189 88.2244104 -12.6683197 88.22573853 C-13.68333557 88.22259644 -13.68333557 88.22259644 -14.71885681 88.21939087 C-16.79062698 88.21403179 -18.86218121 88.21934495 -20.9339447 88.22573853 C-22.23009705 88.22444946 -23.52624939 88.2231604 -24.86167908 88.22183228 C-26.05865417 88.22070435 -27.25562927 88.21957642 -28.48887634 88.21841431 C-31.23277283 88.08901978 -31.23277283 88.08901978 -32.23277283 87.08901978 C-32.3317106 85.31455968 -32.36076375 83.53615726 -32.36216736 81.75894165 C-32.36531952 80.62106201 -32.36847168 79.48318237 -32.37171936 78.31082153 C-32.36969513 77.07231445 -32.3676709 75.83380737 -32.36558533 74.55776978 C-32.36654205 73.29638184 -32.36749878 72.0349939 -32.3684845 70.73538208 C-32.36916658 68.0620484 -32.36780812 65.38880541 -32.36314392 62.71548462 C-32.35744663 59.28195287 -32.36072583 55.84849928 -32.36671638 52.4149704 C-32.37119045 49.15006735 -32.36806166 45.88517385 -32.36558533 42.62026978 C-32.36760956 41.3817627 -32.36963379 40.14325562 -32.37171936 38.86721802 C-32.3685672 37.72933838 -32.36541504 36.59145874 -32.36216736 35.4190979 C-32.36137177 34.41173584 -32.36057617 33.40437378 -32.35975647 32.3664856 C-32.23277283 30.08901978 -32.23277283 30.08901978 -31.23277283 29.08901978 C-29.16015206 29.00134865 -27.08456988 28.98206104 -25.01011658 28.99136353 C-23.75005798 28.99458618 -22.48999939 28.99780884 -21.1917572 29.00112915 C-19.85126174 29.00948574 -18.51076695 29.0179507 -17.17027283 29.02651978 C-15.82587341 29.03153317 -14.48147223 29.03609636 -13.1370697 29.04019165 C-9.83559342 29.0520249 -6.5342048 29.06851007 -3.23277283 29.08901978 C-3.24062805 27.82457031 -3.24062805 27.82457031 -3.24864197 26.53457642 C-3.26565109 23.41674042 -3.27820688 20.29892801 -3.28770447 17.18106079 C-3.29274339 15.82981592 -3.2995746 14.47857652 -3.30821228 13.12734985 C-3.32029702 11.18881543 -3.32547111 9.25024177 -3.33042908 7.31167603 C-3.33566589 6.14386597 -3.34090271 4.97605591 -3.34629822 3.77285767 C-3.19209104 0.12726742 -3.19209104 0.12726742 0 0 Z M-1.23277283 2.08901978 C-1.56277283 10.66901978 -1.89277283 19.24901978 -2.23277283 28.08901978 C-2.56277283 28.74901978 -2.89277283 29.40901978 -3.23277283 30.08901978 C-3.91380066 30.08378296 -4.59482849 30.07854614 -5.29649353 30.07315063 C-8.37941059 30.0523752 -11.46231293 30.0393578 -14.54527283 30.02651978 C-15.6171283 30.01814087 -16.68898376 30.00976196 -17.7933197 30.00112915 C-18.82134705 29.99790649 -19.84937439 29.99468384 -20.90855408 29.99136353 C-21.85641785 29.98612671 -22.80428162 29.98088989 -23.78086853 29.97549438 C-26.37115964 29.98403124 -26.37115964 29.98403124 -29.23277283 31.08901978 C-29.23277283 48.90901978 -29.23277283 66.72901978 -29.23277283 85.08901978 C-20.32277283 85.08901978 -11.41277283 85.08901978 -2.23277283 85.08901978 C-2.27236684 76.24829115 -2.27236684 76.24829115 -2.32286072 67.40762329 C-2.32535828 66.31377319 -2.32785583 65.2199231 -2.33042908 64.09292603 C-2.3382843 62.40405273 -2.3382843 62.40405273 -2.34629822 60.68106079 C-2.23277283 58.08901978 -2.23277283 58.08901978 -1.23277283 57.08901978 C0.69390225 57.0015377 2.62374578 56.98204644 4.55238342 56.99136353 C5.60562805 56.99386108 6.65887268 56.99635864 7.74403381 56.99893188 C9.09231262 57.00803589 10.44059143 57.01713989 11.82972717 57.02651978 C16.09910217 57.04714478 20.36847717 57.06776978 24.76722717 57.08901978 C24.76722717 47.84901978 24.76722717 38.60901978 24.76722717 29.08901978 C34.33722717 29.08901978 43.90722717 29.08901978 53.76722717 29.08901978 C53.78785217 25.93339478 53.80847717 22.77776978 53.82972717 19.52651978 C53.83883118 18.54610718 53.84793518 17.56569458 53.85731506 16.55557251 C53.85981262 15.76094604 53.86231018 14.96631958 53.86488342 14.14761353 C53.87273865 12.94576416 53.87273865 12.94576416 53.88075256 11.71963501 C53.74142143 8.49104794 53.22424331 5.28813276 52.76722717 2.08901978 C34.94722717 2.08901978 17.12722717 2.08901978 -1.23277283 2.08901978 Z " fill="#D91F1F" transform="translate(127.23277282714844,122.91098022460938)"/>
<path d="M0 0 C8.91 0 17.82 0 27 0 C27 8.91 27 17.82 27 27 C18.09 27 9.18 27 0 27 C0 18.09 0 9.18 0 0 Z " fill="#040000" transform="translate(207,377)"/>
<path d="M0 0 C8.91 0 17.82 0 27 0 C27 8.91 27 17.82 27 27 C18.09 27 9.18 27 0 27 C0 18.09 0 9.18 0 0 Z " fill="#030001" transform="translate(178,349)"/>
<path d="M0 0 C8.91 0 17.82 0 27 0 C27 8.91 27 17.82 27 27 C18.09 27 9.18 27 0 27 C0 18.09 0 9.18 0 0 Z " fill="#020001" transform="translate(122,293)"/>
<path d="M0 0 C8.91 0 17.82 0 27 0 C27 8.91 27 17.82 27 27 C18.09 27 9.18 27 0 27 C0 18.09 0 9.18 0 0 Z " fill="#020001" transform="translate(376,265)"/>
<path d="M0 0 C8.91 0 17.82 0 27 0 C27 8.91 27 17.82 27 27 C18.09 27 9.18 27 0 27 C0 18.09 0 9.18 0 0 Z " fill="#020001" transform="translate(94,265)"/>
<path d="M0 0 C8.91 0 17.82 0 27 0 C27 8.91 27 17.82 27 27 C18.09 27 9.18 27 0 27 C0 18.09 0 9.18 0 0 Z " fill="#040001" transform="translate(66,97)"/>
<path d="M0 0 C8.91 0 17.82 0 27 0 C27 8.58 27 17.16 27 26 C18.09 26 9.18 26 0 26 C0 17.42 0 8.84 0 0 Z " fill="#020001" transform="translate(209,97)"/>
<path d="M0 0 C35.97 0 71.94 0 109 0 C109 9.24 109 18.48 109 28 C108.34 28 107.68 28 107 28 C107 19.75 107 11.5 107 3 C54.53 2.505 54.53 2.505 1 2 C1 10.58 1 19.16 1 28 C-1 30 -1 30 -3.52197266 30.22705078 C-4.5588623 30.21657715 -5.59575195 30.20610352 -6.6640625 30.1953125 C-7.78554688 30.18886719 -8.90703125 30.18242188 -10.0625 30.17578125 C-11.238125 30.15902344 -12.41375 30.14226562 -13.625 30.125 C-14.80835938 30.11597656 -15.99171875 30.10695313 -17.2109375 30.09765625 C-20.14082523 30.07402812 -23.0703134 30.04108514 -26 30 C-26.03758423 31.17357056 -26.03758423 31.17357056 -26.07592773 32.37084961 C-26.19149788 35.89324949 -26.31439949 39.4153556 -26.4375 42.9375 C-26.47681641 44.16919922 -26.51613281 45.40089844 -26.55664062 46.66992188 C-26.59853516 47.83974609 -26.64042969 49.00957031 -26.68359375 50.21484375 C-26.73858032 51.84087524 -26.73858032 51.84087524 -26.79467773 53.49975586 C-27 56 -27 56 -28 57 C-30.13353174 57.10003289 -32.27037542 57.13081048 -34.40625 57.1328125 C-35.70691406 57.13410156 -37.00757813 57.13539063 -38.34765625 57.13671875 C-39.02844238 57.13462402 -39.70922852 57.1325293 -40.41064453 57.13037109 C-42.49128515 57.1250224 -44.57170989 57.1303168 -46.65234375 57.13671875 C-48.60333984 57.13478516 -48.60333984 57.13478516 -50.59375 57.1328125 C-51.79708984 57.13168457 -53.00042969 57.13055664 -54.24023438 57.12939453 C-57 57 -57 57 -58 56 C-58.15806531 54.07521187 -58.251135 52.1450079 -58.31640625 50.21484375 C-58.35451416 49.16159912 -58.39262207 48.10835449 -58.43188477 47.02319336 C-58.47498779 45.67491455 -58.51809082 44.32663574 -58.5625 42.9375 C-58.7790625 36.5334375 -58.7790625 36.5334375 -59 30 C-72.86 29.505 -72.86 29.505 -87 29 C-91.02768199 20.94463602 -88 11.00617072 -88 2 C-123.64 2 -159.28 2 -196 2 C-196.33 8.6 -196.66 15.2 -197 22 C-197.33 22 -197.66 22 -198 22 C-198 15.07 -198 8.14 -198 1 C-183.54466854 0.97745203 -169.08934867 0.95908669 -154.63400364 0.94818783 C-147.92258132 0.94302511 -141.21117068 0.93598287 -134.49975586 0.92456055 C-128.02886264 0.91373435 -121.55798158 0.90772374 -115.08708 0.90512276 C-112.61221055 0.90326802 -110.1373418 0.8996465 -107.66247749 0.89426994 C-104.20929627 0.88706307 -100.75616599 0.88600891 -97.30297852 0.88647461 C-96.26864182 0.88287933 -95.23430511 0.87928406 -94.16862488 0.87557983 C-93.23327911 0.8769545 -92.29793335 0.87832916 -91.33424377 0.87974548 C-90.5166134 0.87882369 -89.69898302 0.8779019 -88.85657597 0.87695217 C-87 1 -87 1 -86 2 C-85.84213692 3.85174706 -85.74892644 5.7090911 -85.68359375 7.56640625 C-85.64548584 8.57904541 -85.60737793 9.59168457 -85.56811523 10.63500977 C-85.50346069 12.57911743 -85.50346069 12.57911743 -85.4375 14.5625 C-85.2209375 20.7190625 -85.2209375 20.7190625 -85 27 C-71.14 27.495 -71.14 27.495 -57 28 C-56.67 36.91 -56.34 45.82 -56 55 C-42.635 55.495 -42.635 55.495 -29 56 C-29 46.76 -29 37.52 -29 28 C-19.76 27.67 -10.52 27.34 -1 27 C-0.67 18.09 -0.34 9.18 0 0 Z " fill="#DB0B0E" transform="translate(293,97)"/>
<path d="M0 0 C8.25 0 16.5 0 25 0 C25 8.58 25 17.16 25 26 C16.75 26 8.5 26 0 26 C0 17.42 0 8.84 0 0 Z " fill="#000000" transform="translate(265,378)"/>
<path d="M0 0 C8.25 0 16.5 0 25 0 C25 8.58 25 17.16 25 26 C16.75 26 8.5 26 0 26 C0 17.42 0 8.84 0 0 Z " fill="#010000" transform="translate(321,322)"/>
<path d="M0 0 C18.48 0 36.96 0 56 0 C56 0.33 56 0.66 56 1 C47.09 1 38.18 1 29 1 C29 9.91 29 18.82 29 28 C26.23382437 29.38308781 23.98982 29.11210196 20.8984375 29.09765625 C19.80708496 29.09515869 18.71573242 29.09266113 17.59130859 29.09008789 C16.19992676 29.08098389 14.80854492 29.07187988 13.375 29.0625 C8.96125 29.041875 4.5475 29.02125 0 29 C0 38.24 0 47.48 0 57 C-9.24 57 -18.48 57 -28 57 C-28 66.24 -28 75.48 -28 85 C-37.24 85 -46.48 85 -56 85 C-56 94.24 -56 103.48 -56 113 C-65.57 113 -75.14 113 -85 113 C-85 112.67 -85 112.34 -85 112 C-75.76 112 -66.52 112 -57 112 C-57 93.52 -57 75.04 -57 56 C-38.52 56 -20.04 56 -1 56 C-1 47.09 -1 38.18 -1 29 C-9.91 29 -18.82 29 -28 29 C-28 28.67 -28 28.34 -28 28 C-18.76 28 -9.52 28 0 28 C0 18.76 0 9.52 0 0 Z M2 2 C2 10.58 2 19.16 2 28 C10.25 28 18.5 28 27 28 C27 19.42 27 10.84 27 2 C18.75 2 10.5 2 2 2 Z M-54 58 C-54 66.58 -54 75.16 -54 84 C-45.75 84 -37.5 84 -29 84 C-29 75.42 -29 66.84 -29 58 C-37.25 58 -45.5 58 -54 58 Z " fill="#604949" transform="translate(319,320)"/>
<path d="M0 0 C9.9 0 19.8 0 30 0 C29.67 46.2 29.34 92.4 29 140 C28.67 140 28.34 140 28 140 C28 131.09 28 122.18 28 113 C18.76 113 9.52 113 0 113 C0 75.71 0 38.42 0 0 Z M1 1 C1 37.63 1 74.26 1 112 C13.375 111.505 13.375 111.505 26 111 C26 74.7 26 38.4 26 1 C17.75 1 9.5 1 1 1 Z " fill="#4D2F30" transform="translate(37,124)"/>
<path d="M0 0 C0.66 0 1.32 0 2 0 C2.02886338 4.47915328 2.04675187 8.95828291 2.0625 13.4375 C2.07087891 14.71689453 2.07925781 15.99628906 2.08789062 17.31445312 C2.09111328 18.52939453 2.09433594 19.74433594 2.09765625 20.99609375 C2.10289307 22.12200928 2.10812988 23.2479248 2.11352539 24.40795898 C2 27 2 27 1 28 C-0.99964982 28.08758003 -3.0023611 28.10696576 -5.00390625 28.09765625 C-6.09775635 28.09515869 -7.19160645 28.09266113 -8.31860352 28.09008789 C-9.71908936 28.08098389 -11.1195752 28.07187988 -12.5625 28.0625 C-19.2140625 28.0315625 -19.2140625 28.0315625 -26 28 C-26 37.24 -26 46.48 -26 56 C-35.24 56 -44.48 56 -54 56 C-54 65.24 -54 74.48 -54 84 C-63.24 84 -72.48 84 -82 84 C-82 83.67 -82 83.34 -82 83 C-73.42 83 -64.84 83 -56 83 C-56 73.76 -56 64.52 -56 55 C-53.405282 53.702641 -51.23214561 53.68425346 -48.3359375 53.46484375 C-46.65371094 53.33432617 -46.65371094 53.33432617 -44.9375 53.20117188 C-43.761875 53.11416016 -42.58625 53.02714844 -41.375 52.9375 C-40.19164062 52.84662109 -39.00828125 52.75574219 -37.7890625 52.66210938 C-34.85963815 52.43767767 -31.92997237 52.21714035 -29 52 C-29.01571045 50.9330188 -29.01571045 50.9330188 -29.03173828 49.84448242 C-29.07328001 46.62552414 -29.09932039 43.40662224 -29.125 40.1875 C-29.14175781 39.06794922 -29.15851563 37.94839844 -29.17578125 36.79492188 C-29.18544922 35.18520508 -29.18544922 35.18520508 -29.1953125 33.54296875 C-29.21102295 32.0583313 -29.21102295 32.0583313 -29.22705078 30.54370117 C-29 28 -29 28 -27 25 C-24.38623047 24.56762695 -24.38623047 24.56762695 -21.1171875 24.48828125 C-19.95058594 24.45283203 -18.78398437 24.41738281 -17.58203125 24.38085938 C-16.35871094 24.35830078 -15.13539063 24.33574219 -13.875 24.3125 C-12.64394531 24.27833984 -11.41289062 24.24417969 -10.14453125 24.20898438 C-7.09667987 24.12629073 -4.04835316 24.06147583 -1 24 C-0.67 16.08 -0.34 8.16 0 0 Z " fill="#BE0F0F" transform="translate(373,264)"/>
<path d="M0 0 C1.47987144 0.02545395 1.47987144 0.02545395 2.98963928 0.05142212 C4.66158607 0.07672501 4.66158607 0.07672501 6.36730957 0.10253906 C8.18755394 0.13838608 8.18755394 0.13838608 10.04457092 0.17495728 C11.89980125 0.20681625 11.89980125 0.20681625 13.79251099 0.23931885 C17.08802332 0.2975904 20.38339873 0.36081408 23.67878723 0.42562866 C25.70098431 0.46394885 27.72320799 0.49841482 29.74549866 0.53140259 C33.61613544 0.59489837 37.48659145 0.66505948 41.35707092 0.73745728 C42.56854294 0.75730682 43.78001495 0.77715637 45.02819824 0.79760742 C46.70487328 0.83236679 46.70487328 0.83236679 48.41542053 0.86782837 C49.89648537 0.8956691 49.89648537 0.8956691 51.4074707 0.92407227 C53.76722717 1.08901978 53.76722717 1.08901978 55.76722717 2.08901978 C55.76722717 11.32901978 55.76722717 20.56901978 55.76722717 30.08901978 C45.86722717 30.08901978 35.96722717 30.08901978 25.76722717 30.08901978 C25.76722717 38.99901978 25.76722717 47.90901978 25.76722717 57.08901978 C25.43722717 57.08901978 25.10722717 57.08901978 24.76722717 57.08901978 C24.76722717 47.84901978 24.76722717 38.60901978 24.76722717 29.08901978 C34.33722717 29.08901978 43.90722717 29.08901978 53.76722717 29.08901978 C53.27222717 27.60401978 53.27222717 27.60401978 52.76722717 26.08901978 C52.76722717 18.16901978 52.76722717 10.24901978 52.76722717 2.08901978 C34.94722717 2.08901978 17.12722717 2.08901978 -1.23277283 2.08901978 C-1.23277283 10.66901978 -1.23277283 19.24901978 -1.23277283 28.08901978 C-1.89277283 29.07901978 -2.55277283 30.06901978 -3.23277283 31.08901978 C-11.81277283 31.08901978 -20.39277283 31.08901978 -29.23277283 31.08901978 C-29.23277283 48.90901978 -29.23277283 66.72901978 -29.23277283 85.08901978 C-29.56277283 85.08901978 -29.89277283 85.08901978 -30.23277283 85.08901978 C-30.25803846 77.27449226 -30.27560388 69.45997519 -30.28770447 61.64541626 C-30.29274666 58.98460496 -30.29958019 56.32379646 -30.30821228 53.66299438 C-30.32028291 49.84796462 -30.32600212 46.03297134 -30.33042908 42.21792603 C-30.33559036 41.02002945 -30.34075165 39.82213287 -30.34606934 38.5879364 C-30.34614487 37.48687057 -30.3462204 36.38580475 -30.34629822 35.25137329 C-30.34851883 34.27652481 -30.35073944 33.30167633 -30.35302734 32.29728699 C-30.23277283 30.08901978 -30.23277283 30.08901978 -29.23277283 29.08901978 C-27.30609775 29.0015377 -25.37625422 28.98204644 -23.44761658 28.99136353 C-21.69288025 28.99619751 -21.69288025 28.99619751 -19.9026947 29.00112915 C-18.05514587 29.01369751 -18.05514587 29.01369751 -16.17027283 29.02651978 C-14.31692322 29.03328735 -14.31692322 29.03328735 -12.4261322 29.04019165 C-9.36163166 29.0520237 -6.29722561 29.06850804 -3.23277283 29.08901978 C-3.24062805 27.82457031 -3.24062805 27.82457031 -3.24864197 26.53457642 C-3.26565109 23.41674042 -3.27820688 20.29892801 -3.28770447 17.18106079 C-3.29274339 15.82981592 -3.2995746 14.47857652 -3.30821228 13.12734985 C-3.32029702 11.18881543 -3.32547111 9.25024177 -3.33042908 7.31167603 C-3.33566589 6.14386597 -3.34090271 4.97605591 -3.34629822 3.77285767 C-3.19209104 0.12726742 -3.19209104 0.12726742 0 0 Z " fill="#DA5C5C" transform="translate(127.23277282714844,122.91098022460938)"/>
<path d="M0 0 C1.16660156 0.00322266 2.33320313 0.00644531 3.53515625 0.00976562 C4.75847656 0.01814453 5.98179687 0.02652344 7.2421875 0.03515625 C8.47324219 0.03966797 9.70429688 0.04417969 10.97265625 0.04882812 C14.02088142 0.06064295 17.06901064 0.07711597 20.1171875 0.09765625 C20.1171875 0.42765625 20.1171875 0.75765625 20.1171875 1.09765625 C11.5371875 1.42765625 2.9571875 1.75765625 -5.8828125 2.09765625 C-5.7178125 6.30515625 -5.5528125 10.51265625 -5.3828125 14.84765625 C-4.99633839 25.51679536 -4.7745158 36.17146119 -4.7578125 46.84765625 C-4.75330078 48.0603418 -4.74878906 49.27302734 -4.74414062 50.52246094 C-4.74607422 51.63524414 -4.74800781 52.74802734 -4.75 53.89453125 C-4.75112793 54.87776367 -4.75225586 55.86099609 -4.75341797 56.87402344 C-4.8828125 59.09765625 -4.8828125 59.09765625 -5.8828125 60.09765625 C-8.40375326 60.18613368 -10.89712143 60.21292926 -13.41796875 60.1953125 C-14.54784462 60.19319008 -14.54784462 60.19319008 -15.70054626 60.19102478 C-18.1155081 60.18541001 -20.53037851 60.17285508 -22.9453125 60.16015625 C-24.57877471 60.15514315 -26.21223836 60.15057991 -27.84570312 60.14648438 C-31.85810835 60.13543579 -35.87044491 60.11816131 -39.8828125 60.09765625 C-39.8828125 59.76765625 -39.8828125 59.43765625 -39.8828125 59.09765625 C-37.4078125 58.60265625 -37.4078125 58.60265625 -34.8828125 58.09765625 C-34.5528125 48.85765625 -34.2228125 39.61765625 -33.8828125 30.09765625 C-26.0078125 28.97265625 -26.0078125 28.97265625 -22.04296875 29 C-20.91193726 29.00374634 -20.91193726 29.00374634 -19.75805664 29.00756836 C-18.82985107 29.01667236 -17.90164551 29.02577637 -16.9453125 29.03515625 C-12.459375 29.06609375 -12.459375 29.06609375 -7.8828125 29.09765625 C-7.8828125 19.85765625 -7.8828125 10.61765625 -7.8828125 1.09765625 C-5.16879956 -0.25935022 -3.03434934 -0.01472985 0 0 Z M-32.8828125 32.09765625 C-32.8828125 41.00765625 -32.8828125 49.91765625 -32.8828125 59.09765625 C-23.9728125 59.09765625 -15.0628125 59.09765625 -5.8828125 59.09765625 C-5.8828125 50.18765625 -5.8828125 41.27765625 -5.8828125 32.09765625 C-14.7928125 32.09765625 -23.7028125 32.09765625 -32.8828125 32.09765625 Z " fill="#A22B2C" transform="translate(408.8828125,232.90234375)"/>
<path d="M0 0 C9.57 0 19.14 0 29 0 C29 9.57 29 19.14 29 29 C19.76 29 10.52 29 1 29 C1 38.24 1 47.48 1 57 C-8.57 57 -18.14 57 -28 57 C-28 56.67 -28 56.34 -28 56 C-18.76 56 -9.52 56 0 56 C0 37.52 0 19.04 0 0 Z M3 2 C3 10.58 3 19.16 3 28 C11.25 28 19.5 28 28 28 C28 19.42 28 10.84 28 2 C19.75 2 11.5 2 3 2 Z " fill="#462627" transform="translate(262,376)"/>
<path d="M0 0 C9.57 0 19.14 0 29 0 C29 9.24 29 18.48 29 28 C38.24 28 47.48 28 57 28 C57 37.57 57 47.14 57 57 C52.400625 57.020625 47.80125 57.04125 43.0625 57.0625 C41.60980713 57.071604 40.15711426 57.08070801 38.66040039 57.09008789 C37.52594482 57.09258545 36.39148926 57.09508301 35.22265625 57.09765625 C33.47094116 57.10551147 33.47094116 57.10551147 31.68383789 57.11352539 C29 57 29 57 28 56 C27.91241997 54.00035018 27.89303424 51.9976389 27.90234375 49.99609375 C27.90556641 48.78115234 27.90878906 47.56621094 27.91210938 46.31445312 C27.92048828 45.03505859 27.92886719 43.75566406 27.9375 42.4375 C27.94201172 41.15423828 27.94652344 39.87097656 27.95117188 38.54882812 C27.96300455 35.36583978 27.97948932 32.18294238 28 29 C26.78098999 29.00785522 26.78098999 29.00785522 25.53735352 29.01586914 C21.87907678 29.03656994 18.22081233 29.04963803 14.5625 29.0625 C13.28310547 29.07087891 12.00371094 29.07925781 10.68554688 29.08789062 C8.86313477 29.09272461 8.86313477 29.09272461 7.00390625 29.09765625 C5.87799072 29.10289307 4.7520752 29.10812988 3.59204102 29.11352539 C1 29 1 29 0 28 C-0.08767112 25.92737924 -0.10695873 23.85179706 -0.09765625 21.77734375 C-0.09515869 20.64288818 -0.09266113 19.50843262 -0.09008789 18.33959961 C-0.08098389 16.88690674 -0.07187988 15.43421387 -0.0625 13.9375 C-0.041875 9.338125 -0.02125 4.73875 0 0 Z M1 1 C1 9.91 1 18.82 1 28 C9.91 28 18.82 28 28 28 C28 19.09 28 10.18 28 1 C19.09 1 10.18 1 1 1 Z M29 29 C29 37.91 29 46.82 29 56 C37.91 56 46.82 56 56 56 C56 47.09 56 38.18 56 29 C47.09 29 38.18 29 29 29 Z " fill="#7A5A5A" transform="translate(93,264)"/>
<path d="M0 0 C0.33 0 0.66 0 1 0 C1 8.91 1 17.82 1 27 C10.57 27 20.14 27 30 27 C30.4375 38.875 30.4375 38.875 30.56811523 42.61669922 C30.6252771 44.07100342 30.6252771 44.07100342 30.68359375 45.5546875 C30.72025146 46.54968262 30.75690918 47.54467773 30.79467773 48.56982422 C30.84959532 51.00779501 30.84959532 51.00779501 32 53 C39.92 53.33 47.84 53.66 56 54 C56 54.66 56 55.32 56 56 C46.76 56 37.52 56 28 56 C28 46.76 28 37.52 28 28 C18.76 28 9.52 28 0 28 C0 18.76 0 9.52 0 0 Z " fill="#C80D0D" transform="translate(94,236)"/>
<path d="M0 0 C9.24 0 18.48 0 28 0 C28 9.24 28 18.48 28 28 C18.76 28 9.52 28 0 28 C0 27.67 0 27.34 0 27 C8.25 27 16.5 27 25 27 C25 18.75 25 10.5 25 2 C16.75 1.67 8.5 1.34 0 1 C0 0.67 0 0.34 0 0 Z " fill="#2D0607" transform="translate(66,236)"/>
<path d="M0 0 C9.24 0 18.48 0 28 0 C28 0.33 28 0.66 28 1 C19.42 1 10.84 1 2 1 C2.11856265 9.09271045 2.11856265 9.09271045 2.27026367 17.18481445 C2.27775635 18.1924585 2.28524902 19.20010254 2.29296875 20.23828125 C2.3086792 21.26993408 2.32438965 22.30158691 2.34057617 23.36450195 C2 26 2 26 0.76025391 27.83740234 C-1.46181606 29.30501638 -2.80422017 29.37336798 -5.45703125 29.36328125 C-6.32263672 29.36263672 -7.18824219 29.36199219 -8.08007812 29.36132812 C-8.98177734 29.34521484 -9.88347656 29.32910156 -10.8125 29.3125 C-12.14764648 29.31733398 -12.14764648 29.31733398 -13.50976562 29.32226562 C-18.39394991 29.28243907 -22.42078959 28.89980465 -27 27 C-27 26.67 -27 26.34 -27 26 C-13.635 26.495 -13.635 26.495 0 27 C0 18.09 0 9.18 0 0 Z " fill="#D50E11" transform="translate(153,153)"/>
<path d="M0 0 C0.99 0.495 0.99 0.495 2 1 C1.67 3.64 1.34 6.28 1 9 C1.77714355 8.98952637 2.55428711 8.97905273 3.35498047 8.96826172 C6.861621 8.92679718 10.36821006 8.90070422 13.875 8.875 C15.09832031 8.85824219 16.32164063 8.84148437 17.58203125 8.82421875 C18.74863281 8.81777344 19.91523437 8.81132812 21.1171875 8.8046875 C22.19597168 8.79421387 23.27475586 8.78374023 24.38623047 8.77294922 C27 9 27 9 29 11 C29.22705078 13.61376953 29.22705078 13.61376953 29.1953125 16.8828125 C29.18886719 18.04941406 29.18242188 19.21601563 29.17578125 20.41796875 C29.15902344 21.64128906 29.14226562 22.86460937 29.125 24.125 C29.11597656 25.35605469 29.10695313 26.58710938 29.09765625 27.85546875 C29.07402548 30.90383815 29.04108054 33.95182382 29 37 C31.37507855 37.02719556 33.74983964 37.04693247 36.125 37.0625 C37.12273437 37.07506836 37.12273437 37.07506836 38.140625 37.08789062 C41.28139672 37.10328656 44.21216719 36.96397161 47.3125 36.4375 C50.50990511 35.91699219 52.14236043 36.57118021 55 38 C55 38.33 55 38.66 55 39 C46.09 39 37.18 39 28 39 C27.5625 25.5625 27.5625 25.5625 27.43188477 21.31860352 C27.3747229 19.67782837 27.3747229 19.67782837 27.31640625 18.00390625 C27.27974854 16.87799072 27.24309082 15.7520752 27.20532227 14.59204102 C27.28781955 12.07146559 27.28781955 12.07146559 26 11 C24.07521187 10.84193469 22.1450079 10.748865 20.21484375 10.68359375 C19.04501953 10.64169922 17.87519531 10.59980469 16.66992188 10.55664062 C14.82237305 10.49766602 14.82237305 10.49766602 12.9375 10.4375 C11.70193359 10.39431641 10.46636719 10.35113281 9.19335938 10.30664062 C6.12902665 10.20015802 3.06460927 10.09814576 0 10 C0 6.7 0 3.4 0 0 Z " fill="#EB0707" transform="translate(67,224)"/>
<path d="M0 0 C0.66 0 1.32 0 2 0 C2 9.24 2 18.48 2 28 C-7.9 28 -17.8 28 -28 28 C-28 36.91 -28 45.82 -28 55 C-28.33 55 -28.66 55 -29 55 C-29 45.76 -29 36.52 -29 27 C-19.43 27 -9.86 27 0 27 C-0.33 26.01 -0.66 25.02 -1 24 C-1.01578603 22.15197031 -0.96681127 20.30303657 -0.87890625 18.45703125 C-0.83056641 17.38388672 -0.78222656 16.31074219 -0.73242188 15.20507812 C-0.67634766 14.08552734 -0.62027344 12.96597656 -0.5625 11.8125 C-0.51029297 10.68134766 -0.45808594 9.55019531 -0.40429688 8.38476562 C-0.27456193 5.5895672 -0.13959359 2.7947206 0 0 Z " fill="#D74749" transform="translate(181,125)"/>
<path d="M0 0 C0.33 0 0.66 0 1 0 C1.33 8.58 1.66 17.16 2 26 C10.25 26 18.5 26 27 26 C27 17.42 27 8.84 27 0 C27.33 0 27.66 0 28 0 C28 9.24 28 18.48 28 28 C23.565625 28.020625 19.13125 28.04125 14.5625 28.0625 C13.16201416 28.071604 11.76152832 28.08070801 10.31860352 28.09008789 C9.22475342 28.09258545 8.13090332 28.09508301 7.00390625 28.09765625 C5.87799072 28.10289307 4.7520752 28.10812988 3.59204102 28.11352539 C1 28 1 28 0 27 C-0.08758003 25.00035018 -0.10696576 22.9976389 -0.09765625 20.99609375 C-0.09443359 19.78115234 -0.09121094 18.56621094 -0.08789062 17.31445312 C-0.07951172 16.03505859 -0.07113281 14.75566406 -0.0625 13.4375 C-0.05798828 12.15423828 -0.05347656 10.87097656 -0.04882812 9.54882812 C-0.03699545 6.36583978 -0.02051068 3.18294238 0 0 Z " fill="#400000" transform="translate(236,125)"/>
<path d="M0 0 C9.24 0 18.48 0 28 0 C28 9.24 28 18.48 28 28 C27.34 28 26.68 28 26 28 C26 19.42 26 10.84 26 2 C17.42 2 8.84 2 0 2 C0 1.34 0 0.68 0 0 Z " fill="#2D0000" transform="translate(150,320)"/>
<path d="M0 0 C0.66 0 1.32 0 2 0 C2 8.58 2 17.16 2 26 C10.58 26 19.16 26 28 26 C28 26.66 28 27.32 28 28 C18.76 28 9.52 28 0 28 C0 18.76 0 9.52 0 0 Z " fill="#3D0000" transform="translate(403,97)"/>
<path d="M0 0 C2.33944736 0.28730055 4.6739143 0.61936779 7 1 C7 1.33 7 1.66 7 2 C5.35 2 3.7 2 2 2 C2 11.24 2 20.48 2 30 C-2.64446621 30.66349517 -6.00635614 31.1180047 -10.49609375 30.87890625 C-11.95112305 30.80639648 -11.95112305 30.80639648 -13.43554688 30.73242188 C-14.42619141 30.67634766 -15.41683594 30.62027344 -16.4375 30.5625 C-17.45521484 30.51029297 -18.47292969 30.45808594 -19.52148438 30.40429688 C-22.01470369 30.27553907 -24.50742633 30.1406198 -27 30 C-27 29.67 -27 29.34 -27 29 C-18.09 29 -9.18 29 0 29 C-0.08378906 26.99035156 -0.16757813 24.98070312 -0.25390625 22.91015625 C-0.33036836 20.97079912 -0.40679472 19.03144039 -0.48217773 17.09204102 C-0.53565802 15.74072921 -0.59099194 14.38948948 -0.64819336 13.03833008 C-0.72993571 11.09997011 -0.80453323 9.16131296 -0.87890625 7.22265625 C-0.9260376 6.05484619 -0.97316895 4.88703613 -1.02172852 3.68383789 C-1 1 -1 1 0 0 Z " fill="#CF0E10" transform="translate(125,180)"/>
<path d="M0 0 C0.33 8.91 0.66 17.82 1 27 C6.65988199 28.71313621 6.65988199 28.71313621 12.18359375 29.4140625 C12.88291016 29.45273437 13.58222656 29.49140625 14.30273438 29.53125 C15.35944336 29.57765625 15.35944336 29.57765625 16.4375 29.625 C17.53481445 29.68300781 17.53481445 29.68300781 18.65429688 29.7421875 C20.43583532 29.83533984 22.21788122 29.91870286 24 30 C24 30.33 24 30.66 24 31 C15.75 31 7.5 31 -1 31 C-1.33 21.43 -1.66 11.86 -2 2 C-9.59 2 -17.18 2 -25 2 C-25 1.67 -25 1.34 -25 1 C-21.20836402 0.8326303 -17.4166864 0.66622322 -13.625 0.5 C-12.54476562 0.45230469 -11.46453125 0.40460938 -10.3515625 0.35546875 C-9.3203125 0.31035156 -8.2890625 0.26523437 -7.2265625 0.21875 C-6.27346191 0.17685547 -5.32036133 0.13496094 -4.33837891 0.09179688 C-2.89304218 0.03505783 -1.44644999 0 0 0 Z " fill="#F10504" transform="translate(152,288)"/>
<path d="M0 0 C13.86 0.495 13.86 0.495 28 1 C27.67 1.99 27.34 2.98 27 4 C26.01 3.34 25.02 2.68 24 2 C23.67 2.66 23.34 3.32 23 4 C22.67 3.67 22.34 3.34 22 3 C20.58429877 2.91348389 19.164405 2.89295096 17.74609375 2.90234375 C16.9770874 2.90484131 16.20808105 2.90733887 15.41577148 2.90991211 C14.43294189 2.91901611 13.4501123 2.92812012 12.4375 2.9375 C9.323125 2.958125 6.20875 2.97875 3 3 C2.67 11.25 2.34 19.5 2 28 C1.34 28 0.68 28 0 28 C0 18.76 0 9.52 0 0 Z " fill="#3A0201" transform="translate(290,348)"/>
<path d="M0 0 C9.24 0 18.48 0 28 0 C27.67 0.99 27.34 1.98 27 3 C14.13 2.505 14.13 2.505 1 2 C1 10.58 1 19.16 1 28 C0.67 28 0.34 28 0 28 C0 18.76 0 9.52 0 0 Z " fill="#2D0506" transform="translate(234,404)"/>
<path d="M0 0 C0.33 0 0.66 0 1 0 C1 8.58 1 17.16 1 26 C-7.91 26 -16.82 26 -26 26 C-26 25.67 -26 25.34 -26 25 C-13.625 24.01 -13.625 24.01 -1 23 C-0.67 15.41 -0.34 7.82 0 0 Z " fill="#DF0B0D" transform="translate(345,293)"/>
<path d="M0 0 C12.87 0.495 12.87 0.495 26 1 C26 1.66 26 2.32 26 3 C22.79174438 3.05849554 19.58362767 3.09376162 16.375 3.125 C15.47136719 3.14175781 14.56773437 3.15851563 13.63671875 3.17578125 C8.67249848 3.21201643 4.65588093 2.96444146 0 1 C0 0.67 0 0.34 0 0 Z " fill="#DF4A4D" transform="translate(126,179)"/>
<path d="M0 0 C2.78801969 0.25326914 5.57994173 0.40834217 8.375 0.5625 C9.11105469 0.60568359 9.84710938 0.64886719 10.60546875 0.69335938 C12.40348068 0.79843799 14.20171958 0.89962093 16 1 C16 1.33 16 1.66 16 2 C7.75 2 -0.5 2 -9 2 C-9 1.34 -9 0.68 -9 0 C-5.41877651 -1.19374116 -3.69602628 -0.66216864 0 0 Z " fill="#E5090B" transform="translate(160,317)"/>
</svg>
